<?xml version="1.0" standalone="no"?>
<!DOCTYPE svg PUBLIC "-//W3C//DTD SVG 20010904//EN"
 "http://www.w3.org/TR/2001/REC-SVG-20010904/DTD/svg10.dtd">
<svg version="1.0" xmlns="http://www.w3.org/2000/svg"
 width="128.000000pt" height="128.000000pt" viewBox="0 0 128.000000 128.000000"
 preserveAspectRatio="xMidYMid meet">

<g transform="translate(0.000000,128.000000) scale(0.100000,-0.100000)"
fill="#000000" stroke="none">
<path d="M0 640 l0 -640 640 0 640 0 0 640 0 640 -640 0 -640 0 0 -640z m1200
0 l0 -560 -560 0 -560 0 0 560 0 560 560 0 560 0 0 -560z"/>
<path d="M840 290 l0 -90 30 0 c20 0 30 5 30 15 0 8 -7 15 -15 15 -12 0 -15
15 -15 75 0 60 -3 75 -15 75 -12 0 -15 -17 -15 -90z"/>
<path d="M930 365 c0 -8 7 -15 15 -15 8 0 15 7 15 15 0 8 -7 15 -15 15 -8 0
-15 -7 -15 -15z"/>
<path d="M990 290 l0 -90 65 0 65 0 0 65 0 65 -50 0 c-47 0 -50 2 -50 25 0 16
-6 25 -15 25 -12 0 -15 -17 -15 -90z m100 -25 c0 -33 -2 -35 -35 -35 -33 0
-35 2 -35 35 0 33 2 35 35 35 33 0 35 -2 35 -35z"/>
<path d="M360 265 c0 -51 3 -65 15 -65 11 0 15 12 15 50 l0 50 50 0 c38 0 50
4 50 15 0 12 -14 15 -65 15 l-65 0 0 -65z"/>
<path d="M520 315 c0 -11 12 -15 50 -15 28 0 50 -4 50 -10 0 -5 -22 -10 -50
-10 l-50 0 0 -40 0 -40 65 0 65 0 0 65 0 65 -65 0 c-51 0 -65 -3 -65 -15z
m100 -75 c0 -5 -16 -10 -35 -10 -19 0 -35 5 -35 10 0 6 16 10 35 10 19 0 35
-4 35 -10z"/>
<path d="M680 265 l0 -65 50 0 c28 0 50 -4 50 -10 0 -5 -22 -10 -50 -10 -38 0
-50 -4 -50 -15 0 -12 14 -15 65 -15 l65 0 0 90 c0 73 -3 90 -15 90 -11 0 -15
-12 -15 -50 l0 -50 -35 0 -35 0 0 50 c0 38 -4 50 -15 50 -12 0 -15 -14 -15
-65z"/>
<path d="M930 265 c0 -51 3 -65 15 -65 12 0 15 14 15 65 0 51 -3 65 -15 65
-12 0 -15 -14 -15 -65z"/>
</g>
</svg>
