<svg version="1.1" id="Layer_1" xmlns="http://www.w3.org/2000/svg" xmlns:xlink="http://www.w3.org/1999/xlink" x="0px" y="0px"
	 width="100%" viewBox="0 0 512 512" enable-background="new 0 0 512 512" xml:space="preserve">
<path fill="#000000" opacity="1.000000" stroke="none" 
	d="
M230.394318,458.560425 
	C239.441208,459.278992 248.085129,460.817230 256.641449,460.428375 
	C270.686676,459.790070 284.732117,459.020935 298.656708,456.142548 
	C334.057373,448.824829 365.298004,433.165741 392.264191,409.472076 
	C417.670532,387.148956 436.342896,359.849152 448.263763,328.012177 
	C458.699982,300.140228 462.772949,271.270111 460.479919,241.806870 
	C457.054291,197.790665 441.243195,158.551346 412.183960,124.917946 
	C380.158142,87.850967 340.015747,64.555023 291.824554,56.716267 
	C234.111603,47.328690 181.199661,60.222286 134.332413,95.664856 
	C108.270515,115.373726 88.410667,140.308319 74.270195,169.775711 
	C73.897545,170.552277 73.566460,171.277618 71.409187,171.640167 
	C78.898102,152.687180 88.823524,135.901260 100.918808,120.447090 
	C138.074203,72.973511 185.994629,42.441010 245.899353,33.938110 
	C384.723083,14.233427 492.909576,115.709641 504.118225,234.173218 
	C516.973022,370.034363 414.063019,474.566681 295.616150,482.185242 
	C233.098206,486.206390 177.855316,467.398956 130.810516,425.698395 
	C104.471855,402.351776 84.569679,374.393097 70.727165,340.874603 
	C74.102936,341.947388 74.314896,344.001190 75.059402,345.516235 
	C96.579056,389.307831 129.485565,421.457703 173.704453,442.013947 
	C190.690063,449.910126 208.496994,455.131104 227.045837,457.802734 
	C228.028351,457.944183 228.983902,458.272949 230.394318,458.560425 
z"/>
<path fill="#000000" opacity="1.000000" stroke="none" 
	d="
M145.858902,209.775787 
	C142.093201,214.882111 138.411987,219.609299 135.020721,224.536087 
	C132.680862,227.935394 130.064682,229.530548 125.615196,229.476746 
	C102.958168,229.202942 80.296028,229.346603 57.635685,229.360916 
	C55.483246,229.362274 53.342236,229.250977 51.221100,230.022446 
	C49.210171,230.753830 48.134228,231.919128 48.359383,234.082855 
	C48.582657,236.228500 49.921707,237.357452 51.962894,237.567612 
	C53.614544,237.737656 55.290104,237.709564 56.955097,237.710587 
	C74.616837,237.721466 92.284348,237.443893 109.938446,237.812439 
	C123.524376,238.096054 136.022232,241.551498 146.438354,251.314392 
	C160.625366,264.611694 161.151169,294.000244 139.838074,306.386749 
	C131.150574,311.435699 121.965065,314.309418 111.929604,314.321838 
	C79.938568,314.361420 47.947475,314.360901 15.956403,314.359558 
	C14.151451,314.359467 12.296023,314.607941 10.402465,313.682465 
	C10.160994,310.680115 12.401248,308.875153 13.873728,306.838196 
	C18.550037,300.369080 23.594955,294.160645 28.128462,287.596619 
	C30.199402,284.598145 32.554974,283.641266 36.040840,283.656677 
	C60.533535,283.764984 85.026932,283.706970 109.520088,283.728516 
	C113.234123,283.731781 116.813148,283.300049 120.045418,281.283173 
	C125.264870,278.026337 125.193939,273.573242 119.761734,270.568787 
	C116.336182,268.674194 112.523170,268.321960 108.668762,268.323029 
	C89.340820,268.328400 70.010376,268.508545 50.685932,268.247559 
	C40.192856,268.105835 30.424812,265.158234 21.766129,258.866211 
	C3.465030,245.567322 4.971681,217.831970 24.583130,206.389481 
	C33.146450,201.393112 42.396961,198.871460 52.142345,198.808090 
	C83.798836,198.602219 115.457474,198.721573 147.115280,198.729172 
	C148.593719,198.729523 150.121918,198.510651 151.749420,199.490540 
	C151.633072,203.766998 147.875626,206.102997 145.858902,209.775787 
z"/>
<path fill="#000000" opacity="1.000000" stroke="none" 
	d="
M205.350342,260.001160 
	C205.351059,266.666321 205.477615,272.835480 205.301514,278.995972 
	C205.206192,282.330902 206.189880,283.826935 209.800262,283.782837 
	C222.962631,283.622070 236.132584,283.909668 249.290741,283.621033 
	C264.027252,283.297729 275.711548,272.750000 276.445282,258.199402 
	C277.144562,244.332108 268.013733,233.701935 252.825287,230.403687 
	C248.434830,229.450272 243.950699,229.291641 239.438904,229.311478 
	C219.276276,229.400162 199.113113,229.359634 178.950134,229.365601 
	C176.817017,229.366226 174.683899,229.365707 172.855606,229.365707 
	C171.575348,226.745239 173.224258,225.594559 174.112259,224.353256 
	C179.338089,217.048355 184.737915,209.867508 189.934235,202.542114 
	C191.843124,199.851089 194.077896,198.641846 197.456421,198.669983 
	C213.785660,198.805969 230.129150,198.336182 246.443680,198.845871 
	C266.152924,199.461609 284.282410,204.800705 297.955444,220.131088 
	C308.488861,231.941376 311.769562,245.880219 310.733643,261.664215 
	C308.944092,288.931915 283.350006,310.617737 256.902679,313.502960 
	C252.250000,314.010529 247.639526,314.315918 242.991760,314.322845 
	C220.829193,314.355835 198.665985,314.260620 176.504471,314.418732 
	C172.329803,314.448517 170.585663,313.441376 170.632874,308.861877 
	C170.842453,288.534454 170.809402,268.202850 170.639771,247.874603 
	C170.601990,243.346008 172.133148,241.585281 176.718628,241.726929 
	C184.709625,241.973770 192.714630,241.882507 200.711472,241.769867 
	C204.122559,241.721832 205.529083,243.054169 205.385208,246.506653 
	C205.204971,250.831253 205.347092,255.169296 205.350342,260.001160 
z"/>
<path fill="#000000" opacity="1.000000" stroke="none" 
	d="
M326.744324,235.999969 
	C326.744415,225.168518 326.874481,214.834671 326.682404,204.506805 
	C326.602448,200.206955 328.132019,198.524948 332.506592,198.659424 
	C340.331116,198.899963 348.174042,198.909149 355.997864,198.658844 
	C360.154236,198.525894 361.443573,200.019318 361.418976,204.124924 
	C361.272247,228.619537 361.465607,253.116531 361.248230,277.610107 
	C361.205750,282.397583 362.564026,283.880890 367.415100,283.833466 
	C391.241821,283.600525 415.072021,283.707794 438.900940,283.729126 
	C440.869568,283.730896 442.898163,283.366516 444.854401,284.262695 
	C446.006348,286.871002 443.772491,288.311340 442.642426,289.889526 
	C437.707001,296.782043 432.469879,303.457977 427.502045,310.328033 
	C425.360687,313.289398 422.874664,314.453857 419.112122,314.432556 
	C390.451630,314.270386 361.788940,314.231476 333.129181,314.447540 
	C328.110535,314.485382 326.576660,313.094055 326.631927,307.985809 
	C326.889862,284.159576 326.745117,260.329010 326.744324,235.999969 
z"/>
</svg>